<svg xmlns="http://www.w3.org/2000/svg" viewBox="0 0 200 100">
  <defs>
    <linearGradient id="village-sky" x1="0%" y1="0%" x2="0%" y2="100%">
      <stop offset="0%" style="stop-color:#0d0221;stop-opacity:1" />
      <stop offset="100%" style="stop-color:#1a0a2e;stop-opacity:1" />
    </linearGradient>
    <linearGradient id="cottage" x1="0%" y1="100%" x2="0%" y2="0%">
      <stop offset="0%" style="stop-color:#0d0221;stop-opacity:1" />
      <stop offset="100%" style="stop-color:#2a1545;stop-opacity:0.9" />
    </linearGradient>
  </defs>
  <rect width="200" height="100" fill="url(#village-sky)"/>
  <!-- Distant cottages silhouettes -->
  <path fill="url(#cottage)" d="M20 60 L20 95 L50 95 L50 70 L35 55 Z"/>
  <path fill="url(#cottage)" d="M55 65 L55 95 L85 95 L85 68 L70 55 Z"/>
  <path fill="url(#cottage)" d="M90 58 L90 95 L130 95 L130 65 L110 50 Z"/>
  <path fill="url(#cottage)" d="M135 62 L135 95 L175 95 L175 70 L155 55 Z"/>
  <!-- Stars -->
  <circle cx="30" cy="25" r="1" fill="#c9b8e0" opacity="0.8"/>
  <circle cx="80" cy="20" r="1.5" fill="#e9b44c" opacity="0.6"/>
  <circle cx="120" cy="30" r="1" fill="#c9b8e0" opacity="0.7"/>
  <circle cx="160" cy="22" r="1" fill="#c9b8e0" opacity="0.8"/>
</svg>
