<svg xmlns="http://www.w3.org/2000/svg" viewBox="0 0 64 64">
  <defs>
    <linearGradient id="wolf-grad" x1="0%" y1="0%" x2="100%" y2="100%">
      <stop offset="0%" style="stop-color:#c9b8e0;stop-opacity:0.9" />
      <stop offset="100%" style="stop-color:#e94560;stop-opacity:0.7" />
    </linearGradient>
    <filter id="wolf-glow">
      <feGaussianBlur stdDeviation="0.8" result="blur"/>
      <feMerge>
        <feMergeNode in="blur"/>
        <feMergeNode in="SourceGraphic"/>
      </feMerge>
    </filter>
  </defs>
  <!-- Wolf head - pointed snout, fierce -->
  <path fill="url(#wolf-grad)" filter="url(#wolf-glow)" d="M32 12 C18 12 10 26 10 38 C10 46 16 54 24 54 L40 54 C48 54 54 46 54 38 C54 26 46 12 32 12 Z" opacity="0.95"/>
  <!-- Snout -->
  <path fill="currentColor" d="M28 42 L36 42 L40 52 Q36 56 32 56 Q28 56 24 52 Z" opacity="0.85"/>
  <!-- Eyes -->
  <ellipse cx="22" cy="30" rx="4" ry="5" fill="#1a0a2e"/>
  <ellipse cx="42" cy="30" rx="4" ry="5" fill="#1a0a2e"/>
  <ellipse cx="23" cy="29" rx="1.5" ry="2" fill="#e94560" opacity="0.8"/>
  <ellipse cx="43" cy="29" rx="1.5" ry="2" fill="#e94560" opacity="0.8"/>
  <!-- Ears -->
  <path fill="currentColor" d="M22 18 L14 4 L26 14 Z" opacity="0.9"/>
  <path fill="currentColor" d="M42 18 L50 4 L38 14 Z" opacity="0.9"/>
  <!-- Eyebrow marks -->
  <path fill="none" stroke="currentColor" stroke-width="1" stroke-linecap="round" d="M18 24 Q22 20 26 24 M38 24 Q42 20 46 24" opacity="0.6"/>
</svg>
